<svg width="20" height="41" viewBox="0 0 20 41" fill="none" xmlns="http://www.w3.org/2000/svg">
<path fill-rule="evenodd" clip-rule="evenodd" d="M20 9.99988C20 14.0976 17.5354 17.6196 14.0076 19.1644C14.0979 21.1467 14.9485 40.3758 14.0001 40.6796C13.0967 40.9689 11.6705 40.983 10.4012 40.9955L10.3995 40.9955C10.2643 40.9969 10.1309 40.9982 10.0001 40.9998C9.78279 40.9953 9.56422 40.9921 9.34625 40.9889C8.08931 40.9706 6.85211 40.9525 6.00008 40.6796C5.05173 40.3758 5.90226 21.1472 5.99251 19.1645C2.4647 17.6197 0 14.0976 0 9.99988C0 5.89924 2.46819 2.37508 6 0.831965V9.96454L10 11.9998L14 9.96454V0.831965C17.5318 2.37508 20 5.89924 20 9.99988ZM13.6614 0.691391C13.7715 0.733341 13.8841 0.777543 14 0.824097V0.831965C13.8882 0.783106 13.7753 0.736233 13.6614 0.691391ZM13.6614 0.691391C13.4517 0.608838 13.2385 0.533168 13.0221 0.464658C13.2284 0.531598 13.4397 0.606925 13.6614 0.691391ZM11.3488 0.0900619C11.941 0.16343 12.4632 0.283264 13.0221 0.464658C12.4827 0.293847 11.9235 0.167545 11.3488 0.0900619ZM11.3488 0.0900619C10.9077 0.0305891 10.4574 -0.00012207 10 -0.00012207C10.5053 0.0113997 10.9434 0.039848 11.3488 0.0900619ZM10 -0.00012207C9.72355 -0.00012207 9.44971 0.011096 9.17893 0.0331017C8.02464 0.111762 7.22616 0.329222 6 0.824097V0.831965C6.98682 0.400805 8.05668 0.124304 9.17893 0.0331017C9.43266 0.0158114 9.70357 0.00522757 10 -0.00012207Z" fill="#F9F9F9"/>
</svg>
