<svg width="49" height="47" viewBox="0 0 49 47" fill="none" xmlns="http://www.w3.org/2000/svg">
<path fill-rule="evenodd" clip-rule="evenodd" d="M1.43716 40.3869V2.94768C2.30529 2.66882 3.22275 2.55031 3.95144 2.50413C4.34412 2.47925 4.67695 2.47566 4.91064 2.47825C5.02738 2.47954 5.11911 2.48237 5.18087 2.48483C5.21175 2.48606 5.23512 2.4872 5.25035 2.488L5.26703 2.48892L5.27064 2.48914L5.27103 2.48916L5.27116 2.48917L5.27124 2.48918C5.51212 2.5046 5.71994 2.3219 5.73548 2.08101C5.75103 1.84005 5.56829 1.63211 5.32733 1.61656L5.29924 2.05197C5.32733 1.61656 5.32724 1.61655 5.32715 1.61655L5.32691 1.61653L5.32629 1.61649L5.32442 1.61638L5.31825 1.61601L5.29631 1.61479C5.27749 1.6138 5.25041 1.61249 5.21567 1.61111C5.14622 1.60834 5.0461 1.60528 4.92033 1.60388C4.66898 1.6011 4.31412 1.60498 3.89614 1.63146C3.06465 1.68415 1.96308 1.82747 0.925813 2.19781C0.83094 2.23168 0.755017 2.29497 0.704641 2.37374C0.617427 2.45367 0.562744 2.56852 0.562744 2.69614V40.8791C0.562744 41.1206 0.758489 41.3163 0.999953 41.3163C1.01207 41.3163 1.02407 41.3158 1.03593 41.3148C1.06897 41.3176 1.10284 41.3166 1.13705 41.3116C3.55296 40.9528 7.54622 40.7648 11.6363 41.3735C15.735 41.9834 19.8642 43.3833 22.6241 46.1433C22.7949 46.314 23.0717 46.314 23.2424 46.1433C23.3558 46.0299 23.3939 45.8697 23.3567 45.7249C23.3657 45.6899 23.3705 45.6533 23.3705 45.6155V31.6741L23.0379 31.5172C23.0069 30.968 22.8263 30.2385 22.4961 29.3288V44.8349C19.5843 42.3432 15.6024 41.0796 11.765 40.5086C7.81168 39.9203 3.95185 40.0581 1.43716 40.3869ZM22.4961 24.5705C22.8321 25.3117 23.1235 25.953 23.3705 26.4943V7.43258C23.3705 7.19111 23.1748 6.99537 22.9333 6.99537C22.6918 6.99537 22.4961 7.19111 22.4961 7.43258V24.5705ZM25.7023 27.9038V45.6155C25.7023 45.6486 25.706 45.6808 25.7129 45.7118C25.6812 45.8531 25.7204 46.0071 25.8303 46.117C26.0011 46.2878 26.2779 46.2878 26.4486 46.117C29.2086 43.3571 33.3378 41.9572 37.4365 41.3472C41.5266 40.7386 45.5198 40.9265 47.9357 41.2853C48.1746 41.3208 48.3969 41.1559 48.4324 40.9171C48.4368 40.8873 48.4382 40.8577 48.4366 40.8288C48.437 40.8213 48.4372 40.8138 48.4372 40.8062V2.62327L48.4372 2.62024C48.4417 2.43669 48.3293 2.26292 48.147 2.19781C47.1097 1.82747 46.0081 1.68415 45.1766 1.63146L43.8018 2.48916L43.8021 2.48914L43.8058 2.48892L43.8224 2.488C43.8377 2.4872 43.861 2.48606 43.8919 2.48483C43.9537 2.48237 44.0454 2.47954 44.1621 2.47825C44.3958 2.47566 44.7287 2.47925 45.1213 2.50413C45.8297 2.54902 46.7164 2.66225 47.5627 2.92469V40.3512C45.0467 40.0292 41.2231 39.8997 37.3078 40.4823C33.4704 41.0534 29.4884 42.317 26.5767 44.8087V25.7126L25.7023 27.9038ZM26.5767 22.5698L25.7023 24.7494V7.43258C25.7023 7.19111 25.898 6.99537 26.1395 6.99537C26.381 6.99537 26.5767 7.19111 26.5767 7.43258V22.5698Z" fill="#F9F9F9"/>
<path opacity="0.95" fill-rule="evenodd" clip-rule="evenodd" d="M24.2449 28.3821V7.47728C22.238 4.68728 15.7337 -0.587056 6.31934 0.0534332V38.1917C15.7337 37.5512 22.238 42.8255 24.2449 45.6155V31.5557L24.0667 32.0023L23.0379 31.5172C22.9987 30.8216 22.7194 29.8368 22.2001 28.563L15.4833 13.7038L13.7637 29.3861C13.7245 29.729 13.749 30.0083 13.8372 30.2239C13.9352 30.4296 14.1605 30.6256 14.5133 30.8118C14.8758 30.9881 15.4098 31.1449 16.1153 31.2821L16.0565 31.5466C14.4496 31.4291 13.1954 31.3899 12.294 31.4291C12.2156 31.3507 12.1568 31.2527 12.1176 31.1351L14.3369 11.896C14.0626 11.6706 13.7245 11.553 13.3228 11.5432C12.921 11.5236 12.5389 11.5579 12.1764 11.6461L12 11.3522C13.46 10.5291 14.7925 10.1176 15.9977 10.1176C16.2329 10.6467 17.5508 13.5862 19.9514 18.9361C22.3618 24.286 23.7924 27.4362 24.2431 28.3867L24.2449 28.3821ZM24.6821 30.4601L31.6213 13.0718L33.3409 30.1651C33.4193 30.8901 33.3654 31.4095 33.1792 31.723L33.2821 31.8847C33.9876 31.6495 34.6539 31.5074 35.281 31.4585C35.908 31.4095 36.785 31.3997 37.9118 31.4291L38 31.0616C37.079 30.993 36.4421 30.7971 36.0893 30.4737C35.7366 30.1406 35.5308 29.5772 35.472 28.7835L33.5172 10C32.6942 10.1372 31.9299 10.4654 31.2244 10.9847L24.6821 27.2923V7.47728C26.6891 4.68728 33.1934 -0.587056 42.6077 0.0534332V38.1917C33.1934 37.5512 26.6891 42.8255 24.6821 45.6155V30.4601Z" fill="#F9F9F9"/>
</svg>
