<svg width="160" height="53" viewBox="0 0 160 53" fill="none" xmlns="http://www.w3.org/2000/svg">
<path d="M81.17 18.5488C82.0137 17.9277 82.9278 17.5352 83.9122 17.3711L86.2501 39.8359C86.3204 40.7852 86.5665 41.459 86.9884 41.8574C87.4102 42.2441 88.172 42.4785 89.2735 42.5605L89.168 43C87.8204 42.9648 86.7716 42.9766 86.0216 43.0352C85.2716 43.0938 84.4747 43.2637 83.6309 43.5449L83.5079 43.3516C83.7305 42.9766 83.795 42.3555 83.7012 41.4883L81.6446 21.0449L72.6095 43.6855L71.379 43.1055C71.3321 42.2734 70.9981 41.0957 70.377 39.5723L62.3438 21.8008L60.2872 40.5566C60.2403 40.9668 60.2696 41.3008 60.3751 41.5586C60.4923 41.8047 60.7618 42.0391 61.1837 42.2617C61.6173 42.4727 62.2559 42.6602 63.0997 42.8242L63.0294 43.1406C61.1075 43 59.6075 42.9531 58.5294 43C58.4356 42.9062 58.3653 42.7891 58.3184 42.6484L60.9727 19.6387C60.6446 19.3691 60.2403 19.2285 59.7598 19.2168C59.2794 19.1934 58.8223 19.2344 58.3887 19.3398L58.1778 18.9883C59.9239 18.0039 61.5177 17.5117 62.9591 17.5117C63.2403 18.1445 64.8165 21.6602 67.6876 28.0586C70.5704 34.457 72.2813 38.2246 72.8204 39.3613L81.17 18.5488ZM91.6044 34.4395C91.6044 33.1973 91.8095 31.9961 92.2196 30.8359C92.6298 29.6641 93.2157 28.627 93.9774 27.7246C94.7391 26.8105 95.6591 26.084 96.7372 25.5449C97.827 24.9941 99.0458 24.7188 100.393 24.7188C101.237 24.7188 102.034 24.8652 102.784 25.1582C103.534 25.4395 104.184 25.8848 104.735 26.4941C105.298 27.0918 105.737 27.8652 106.054 28.8145C106.382 29.752 106.546 30.8711 106.546 32.1719L105.86 32.8047H94.3817C94.3583 33.0039 94.3466 33.1973 94.3466 33.3848C94.3466 33.5723 94.3466 33.7598 94.3466 33.9473C94.3466 35.2246 94.493 36.3848 94.786 37.4277C95.0907 38.4707 95.495 39.3672 95.9989 40.1172C96.5145 40.8555 97.118 41.4297 97.8095 41.8398C98.5009 42.25 99.2333 42.4551 100.007 42.4551C100.499 42.4551 100.997 42.4199 101.501 42.3496C102.016 42.2676 102.515 42.1445 102.995 41.9805C103.487 41.8164 103.962 41.6055 104.419 41.3477C104.876 41.0898 105.298 40.7793 105.684 40.416L106.405 41.1719C105.479 42.0859 104.472 42.7363 103.382 43.123C102.292 43.5215 101.032 43.7207 99.6024 43.7207C98.4774 43.7207 97.4227 43.5039 96.4384 43.0703C95.4657 42.6367 94.622 42.0156 93.9071 41.207C93.1923 40.3984 92.6298 39.4258 92.2196 38.2891C91.8095 37.1406 91.6044 35.8574 91.6044 34.4395ZM100.007 25.9316C98.1903 25.9316 96.8602 26.4062 96.0165 27.3555C95.1727 28.293 94.663 29.6465 94.4872 31.416H104.278C104.184 29.4941 103.751 28.0996 102.977 27.2324C102.216 26.3652 101.225 25.9316 100.007 25.9316ZM110.634 29.9746C110.634 29.1895 110.593 28.5332 110.511 28.0059C110.441 27.4785 110.306 27.0566 110.107 26.7402C109.92 26.4238 109.656 26.2012 109.316 26.0723C108.976 25.9434 108.384 25.8848 107.541 25.8965L107.47 25.5801C109.381 25.0059 111.156 24.7188 112.797 24.7188C113.043 25.3398 113.166 26.0078 113.166 26.7227V28.8848L113.236 28.9551C113.728 28.2754 114.197 27.6719 114.642 27.1445C115.099 26.6172 115.562 26.1777 116.031 25.8262C116.5 25.4746 116.992 25.2109 117.507 25.0352C118.023 24.8477 118.597 24.7539 119.23 24.7539C119.629 24.7539 120.068 24.7891 120.549 24.8594L119.529 29.1484L118.879 28.9551C118.879 28.7793 118.867 28.5391 118.843 28.2344C118.82 27.9297 118.785 27.6309 118.738 27.3379C118.703 27.0332 118.65 26.7754 118.58 26.5645C118.521 26.3418 118.451 26.2305 118.369 26.2305C118.029 26.2305 117.683 26.3066 117.332 26.459C116.992 26.5996 116.617 26.834 116.207 27.1621C115.797 27.4902 115.345 27.918 114.853 28.4453C114.361 28.9727 113.799 29.6113 113.166 30.3613V40.5918C113.166 40.9668 113.195 41.2715 113.254 41.5059C113.312 41.7285 113.435 41.916 113.623 42.0684C113.81 42.2207 114.074 42.3555 114.414 42.4727C114.754 42.5898 115.199 42.7188 115.75 42.8594L115.609 43.2812C114.929 43.1875 114.349 43.1172 113.869 43.0703C113.4 43.0234 113.019 43 112.726 43C112.058 43 111.279 43.0938 110.388 43.2812L110.283 43.1055C110.517 42.7656 110.634 42.1445 110.634 41.2422V29.9746ZM134.586 41.0137C134.586 41.2129 134.627 41.4004 134.709 41.5762C134.803 41.7402 134.909 41.8809 135.026 41.998C135.155 42.1035 135.336 42.209 135.571 42.3145C135.805 42.4199 136.01 42.502 136.186 42.5605C136.362 42.6191 136.608 42.6953 136.924 42.7891L136.784 43.2109C136.034 43.0703 135.29 43 134.551 43C133.625 43 132.711 43.0938 131.809 43.2812L131.704 43.1055C131.95 42.7656 132.073 42.1445 132.073 41.2422V40.082C131.487 41.1719 130.573 42.0508 129.331 42.7188C128.1 43.3867 126.852 43.7207 125.586 43.7207C124.239 43.7207 123.149 43.375 122.317 42.6836C121.497 41.9805 121.086 40.9434 121.086 39.5723C121.086 38.6816 121.268 37.8906 121.631 37.1992C122.006 36.4961 122.499 35.9043 123.108 35.4238C123.729 34.9316 124.52 34.498 125.481 34.123C126.454 33.748 127.45 33.4434 128.469 33.209C129.5 32.9746 130.702 32.7578 132.073 32.5586V30.9414C132.073 27.7188 130.801 26.1074 128.258 26.1074C127.438 26.1074 126.43 26.3125 125.235 26.7227C124.051 27.1211 123.055 27.6484 122.247 28.3047L121.526 27.4785C122.545 26.6699 123.752 26.002 125.147 25.4746C126.553 24.9473 127.866 24.6836 129.084 24.6836C129.624 24.6836 130.133 24.7363 130.614 24.8418C131.106 24.9355 131.598 25.1172 132.09 25.3867C132.594 25.6445 133.022 25.9785 133.374 26.3887C133.737 26.7871 134.03 27.3262 134.252 28.0059C134.475 28.6738 134.586 29.4355 134.586 30.291V41.0137ZM126.413 42.3848C127.432 42.3848 128.499 42.0508 129.612 41.3828C130.725 40.7031 131.545 39.8594 132.073 38.8516V33.4902C129.073 33.9238 126.928 34.5918 125.639 35.4941C124.362 36.3848 123.723 37.6855 123.723 39.3965C123.723 40.4395 123.946 41.2012 124.391 41.6816C124.836 42.1504 125.51 42.3848 126.413 42.3848ZM140.82 20.1836C140.82 18.5195 140.62 17.4062 140.222 16.8438C139.835 16.2695 139.003 16.0234 137.726 16.1055L137.656 15.7891C139.589 15.2148 141.365 14.9277 142.982 14.9277C143.228 15.5371 143.351 16.2051 143.351 16.9316V39.8359C143.351 40.7617 143.568 41.4473 144.001 41.8926C144.435 42.3379 145.202 42.6602 146.304 42.8594L146.163 43.2812C144.816 43.0938 143.732 43 142.911 43C142.267 43 141.488 43.0938 140.574 43.2812L140.468 43.1055C140.702 42.7656 140.82 42.1445 140.82 41.2422V20.1836ZM151.261 42.1738L144.757 33.6133V33.209L151.261 26.6523C151.589 26.2891 151.466 26.0137 150.892 25.8262C150.376 25.6504 149.638 25.6035 148.677 25.6855L148.572 25.2461C150.072 24.9414 151.812 24.7656 153.792 24.7188L154.074 25.2461L146.761 32.5586C151.308 38.2656 153.845 41.3125 154.372 41.6992C154.9 42.0742 155.556 42.3496 156.341 42.5254L156.306 43.0703C154.384 42.9297 152.931 43 151.947 43.2812L151.7 43.1406C151.724 42.8828 151.577 42.5605 151.261 42.1738ZM152.148 29.9746C152.148 28.3105 151.949 27.1973 151.551 26.6348C151.164 26.0605 150.332 25.8145 149.055 25.8965L148.984 25.5801C150.918 25.0059 152.693 24.7188 154.31 24.7188C154.557 25.3281 154.68 25.9961 154.68 26.7227V39.8359C154.68 40.7617 154.896 41.4473 155.33 41.8926C155.764 42.3379 156.531 42.6602 157.633 42.8594L157.492 43.2812C156.144 43.0938 155.101 43 154.363 43C153.637 43 152.816 43.0938 151.902 43.2812L151.797 43.1055C152.031 42.7656 152.148 42.1445 152.148 41.2422V29.9746ZM150.355 18.1973C151.469 17.5527 152.728 17.0137 154.135 16.5801C154.135 17.5527 154.293 18.5137 154.609 19.4629L154.381 19.7793C153.268 19.8496 152.107 20.1602 150.9 20.7109C150.607 19.9023 150.426 19.0645 150.355 18.1973Z" fill="#F9F9F9"/>
<path d="M1.43721 2.69613C1.43721 2.45466 1.24146 2.25892 1 2.25892C0.758536 2.25892 0.562791 2.45466 0.562791 2.69613H1.43721ZM0.562791 40.8791C0.562791 41.1205 0.758536 41.3163 1 41.3163C1.24146 41.3163 1.43721 41.1205 1.43721 40.8791H0.562791ZM48.4372 2.62326C48.4372 2.3818 48.2415 2.18605 48 2.18605C47.7585 2.18605 47.5628 2.3818 47.5628 2.62326H48.4372ZM47.5628 40.8062C47.5628 41.0477 47.7585 41.2434 48 41.2434C48.2415 41.2434 48.4372 41.0477 48.4372 40.8062H47.5628ZM23.3705 7.43256C23.3705 7.1911 23.1748 6.99535 22.9333 6.99535C22.6919 6.99535 22.4961 7.1911 22.4961 7.43256H23.3705ZM22.4961 45.6155C22.4961 45.857 22.6919 46.0527 22.9333 46.0527C23.1748 46.0527 23.3705 45.857 23.3705 45.6155H22.4961ZM26.5767 7.43256C26.5767 7.1911 26.381 6.99535 26.1395 6.99535C25.8981 6.99535 25.7023 7.1911 25.7023 7.43256H26.5767ZM25.7023 45.6155C25.7023 45.857 25.8981 46.0527 26.1395 46.0527C26.381 46.0527 26.5767 45.857 26.5767 45.6155H25.7023ZM1.00864 40.4466C0.769796 40.4821 0.60493 40.7045 0.640402 40.9433C0.675874 41.1821 0.898252 41.347 1.1371 41.3115L1.00864 40.4466ZM22.6242 46.1433C22.7949 46.314 23.0717 46.314 23.2425 46.1433C23.4132 45.9725 23.4132 45.6957 23.2425 45.525L22.6242 46.1433ZM0.925859 2.19779C0.698455 2.27899 0.579925 2.52915 0.661115 2.75656C0.742306 2.98396 0.992472 3.10249 1.21988 3.0213L0.925859 2.19779ZM5.27108 2.48915C5.51204 2.5047 5.71998 2.32196 5.73553 2.081C5.75107 1.84003 5.56834 1.63209 5.32737 1.61655L5.27108 2.48915ZM47.853 3.0213C48.0804 3.10249 48.3306 2.98396 48.4118 2.75656C48.4929 2.52915 48.3744 2.27899 48.147 2.19779L47.853 3.0213ZM43.7455 1.61655C43.5045 1.63209 43.3218 1.84003 43.3373 2.081C43.3529 2.32196 43.5608 2.5047 43.8018 2.48915L43.7455 1.61655ZM47.9358 41.2853C48.1746 41.3208 48.397 41.1559 48.4325 40.9171C48.4679 40.6782 48.3031 40.4558 48.0642 40.4204L47.9358 41.2853ZM25.8304 45.4987C25.6596 45.6695 25.6596 45.9463 25.8304 46.117C26.0011 46.2878 26.2779 46.2878 26.4487 46.117L25.8304 45.4987ZM0.562791 2.69613V40.8791H1.43721V2.69613H0.562791ZM47.5628 2.62326V40.8062H48.4372V2.62326H47.5628ZM22.4961 7.43256V45.6155H23.3705V7.43256H22.4961ZM25.7023 7.43256V45.6155H26.5767V7.43256H25.7023ZM1.1371 41.3115C3.55301 40.9527 7.54627 40.7648 11.6363 41.3735C15.7351 41.9834 19.8642 43.3833 22.6242 46.1433L23.2425 45.525C20.2896 42.5721 15.9417 41.1301 11.7651 40.5086C7.57973 39.8857 3.49919 40.0767 1.00864 40.4466L1.1371 41.3115ZM1.21988 3.0213C2.15005 2.6892 3.16166 2.55417 3.95149 2.50412C4.34417 2.47923 4.677 2.47564 4.91068 2.47823C5.02743 2.47953 5.11915 2.48236 5.18092 2.48482C5.2118 2.48605 5.23516 2.48719 5.2504 2.48799C5.25802 2.48839 5.2636 2.48871 5.26707 2.48891C5.26881 2.48901 5.27002 2.48908 5.27069 2.48913C5.27102 2.48915 5.27122 2.48916 5.27129 2.48916C5.27132 2.48917 5.27132 2.48917 5.27129 2.48916C5.27127 2.48916 5.27121 2.48916 5.27121 2.48916C5.27115 2.48915 5.27108 2.48915 5.29922 2.05285C5.32737 1.61655 5.32729 1.61654 5.32719 1.61653C5.32715 1.61653 5.32704 1.61652 5.32696 1.61652C5.32679 1.61651 5.32658 1.61649 5.32634 1.61648C5.32585 1.61645 5.32523 1.61641 5.32447 1.61636C5.32296 1.61627 5.32089 1.61615 5.3183 1.61599C5.3131 1.61569 5.30576 1.61527 5.29635 1.61478C5.27754 1.61379 5.25045 1.61248 5.21572 1.61109C5.14627 1.60833 5.04614 1.60526 4.92037 1.60387C4.66903 1.60108 4.31417 1.60496 3.89619 1.63145C3.0647 1.68414 1.96313 1.82746 0.925859 2.19779L1.21988 3.0213ZM48.147 2.19779C47.1097 1.82746 46.0082 1.68414 45.1767 1.63145C44.7587 1.60496 44.4038 1.60108 44.1525 1.60387C44.0267 1.60526 43.9266 1.60833 43.8572 1.61109C43.8224 1.61248 43.7953 1.61379 43.7765 1.61478C43.7671 1.61527 43.7598 1.61569 43.7546 1.61599C43.752 1.61615 43.7499 1.61627 43.7484 1.61636C43.7476 1.61641 43.747 1.61645 43.7465 1.61648C43.7463 1.61649 43.7461 1.61651 43.7459 1.61652C43.7458 1.61652 43.7457 1.61653 43.7457 1.61653C43.7456 1.61654 43.7455 1.61655 43.7736 2.05285C43.8018 2.48915 43.8017 2.48915 43.8017 2.48916C43.8017 2.48916 43.8016 2.48916 43.8016 2.48916C43.8016 2.48917 43.8015 2.48917 43.8016 2.48916C43.8016 2.48916 43.8018 2.48915 43.8022 2.48913C43.8029 2.48908 43.8041 2.48901 43.8058 2.48891C43.8093 2.48871 43.8149 2.48839 43.8225 2.48799C43.8377 2.48719 43.8611 2.48605 43.8919 2.48482C43.9537 2.48236 44.0454 2.47953 44.1622 2.47823C44.3959 2.47564 44.7287 2.47923 45.1214 2.50412C45.9112 2.55417 46.9228 2.6892 47.853 3.0213L48.147 2.19779ZM48.0642 40.4204C45.5737 40.0505 41.4931 39.8595 37.3078 40.4823C33.1311 41.1039 28.7833 42.5458 25.8304 45.4987L26.4487 46.117C29.2087 43.357 33.3378 41.9571 37.4365 41.3472C41.5266 40.7386 45.5199 40.9265 47.9358 41.2853L48.0642 40.4204Z" fill="#F9F9F9"/>
<g opacity="0.95">
<path d="M24.6821 7.47728V45.6155C26.6891 42.8255 33.1934 37.5512 42.6077 38.1917V0.0534332C33.1934 -0.587056 26.6891 4.68728 24.6821 7.47728Z" fill="#F9F9F9"/>
<path d="M24.2449 7.47728V45.6155C22.238 42.8255 15.7337 37.5512 6.31934 38.1917V0.0534332C15.7337 -0.587056 22.238 4.68728 24.2449 7.47728Z" fill="#F9F9F9"/>
</g>
<path d="M59.9082 13H59.2051V4H59.9082V13ZM62.6035 13H61.9004V6.66016H62.6035V13ZM61.7773 4.82617C61.7773 4.69336 61.8203 4.58203 61.9062 4.49219C61.9922 4.39844 62.1094 4.35156 62.2578 4.35156C62.4062 4.35156 62.5234 4.39844 62.6094 4.49219C62.6992 4.58203 62.7441 4.69336 62.7441 4.82617C62.7441 4.95898 62.6992 5.07031 62.6094 5.16016C62.5234 5.25 62.4062 5.29492 62.2578 5.29492C62.1094 5.29492 61.9922 5.25 61.9062 5.16016C61.8203 5.07031 61.7773 4.95898 61.7773 4.82617ZM66.4883 12.0332L68.416 6.66016H69.1367L66.7695 13H66.2012L63.8223 6.66016H64.543L66.4883 12.0332ZM73.2207 7.25781C73.0723 7.23047 72.9141 7.2168 72.7461 7.2168C72.3086 7.2168 71.9375 7.33984 71.6328 7.58594C71.332 7.82812 71.1172 8.18164 70.9883 8.64648V13H70.291V6.66016H70.9766L70.9883 7.66797C71.3594 6.91797 71.9551 6.54297 72.7754 6.54297C72.9707 6.54297 73.125 6.56836 73.2383 6.61914L73.2207 7.25781ZM78.1016 13C78.0312 12.8008 77.9863 12.5059 77.9668 12.1152C77.7207 12.4355 77.4062 12.6836 77.0234 12.8594C76.6445 13.0312 76.2422 13.1172 75.8164 13.1172C75.207 13.1172 74.7129 12.9473 74.334 12.6074C73.959 12.2676 73.7715 11.8379 73.7715 11.3184C73.7715 10.7012 74.0273 10.2129 74.5391 9.85352C75.0547 9.49414 75.7715 9.31445 76.6895 9.31445H77.9609V8.59375C77.9609 8.14062 77.8203 7.78516 77.5391 7.52734C77.2617 7.26562 76.8555 7.13477 76.3203 7.13477C75.832 7.13477 75.4277 7.25977 75.1074 7.50977C74.7871 7.75977 74.627 8.06055 74.627 8.41211L73.9238 8.40625C73.9238 7.90234 74.1582 7.4668 74.627 7.09961C75.0957 6.72852 75.6719 6.54297 76.3555 6.54297C77.0625 6.54297 77.6191 6.7207 78.0254 7.07617C78.4355 7.42773 78.6465 7.91992 78.6582 8.55273V11.5527C78.6582 12.166 78.7227 12.625 78.8516 12.9297V13H78.1016ZM75.8984 12.4961C76.3672 12.4961 76.7852 12.3828 77.1523 12.1562C77.5234 11.9297 77.793 11.627 77.9609 11.248V9.85352H76.707C76.0078 9.86133 75.4609 9.99023 75.0664 10.2402C74.6719 10.4863 74.4746 10.8262 74.4746 11.2598C74.4746 11.6152 74.6055 11.9102 74.8672 12.1445C75.1328 12.3789 75.4766 12.4961 75.8984 12.4961ZM83.4629 7.25781C83.3145 7.23047 83.1562 7.2168 82.9883 7.2168C82.5508 7.2168 82.1797 7.33984 81.875 7.58594C81.5742 7.82812 81.3594 8.18164 81.2305 8.64648V13H80.5332V6.66016H81.2188L81.2305 7.66797C81.6016 6.91797 82.1973 6.54297 83.0176 6.54297C83.2129 6.54297 83.3672 6.56836 83.4805 6.61914L83.4629 7.25781ZM85.3613 13H84.6582V6.66016H85.3613V13ZM84.5352 4.82617C84.5352 4.69336 84.5781 4.58203 84.6641 4.49219C84.75 4.39844 84.8672 4.35156 85.0156 4.35156C85.1641 4.35156 85.2812 4.39844 85.3672 4.49219C85.457 4.58203 85.502 4.69336 85.502 4.82617C85.502 4.95898 85.457 5.07031 85.3672 5.16016C85.2812 5.25 85.1641 5.29492 85.0156 5.29492C84.8672 5.29492 84.75 5.25 84.6641 5.16016C84.5781 5.07031 84.5352 4.95898 84.5352 4.82617ZM91.2734 13C91.2031 12.8008 91.1582 12.5059 91.1387 12.1152C90.8926 12.4355 90.5781 12.6836 90.1953 12.8594C89.8164 13.0312 89.4141 13.1172 88.9883 13.1172C88.3789 13.1172 87.8848 12.9473 87.5059 12.6074C87.1309 12.2676 86.9434 11.8379 86.9434 11.3184C86.9434 10.7012 87.1992 10.2129 87.7109 9.85352C88.2266 9.49414 88.9434 9.31445 89.8613 9.31445H91.1328V8.59375C91.1328 8.14062 90.9922 7.78516 90.7109 7.52734C90.4336 7.26562 90.0273 7.13477 89.4922 7.13477C89.0039 7.13477 88.5996 7.25977 88.2793 7.50977C87.959 7.75977 87.7988 8.06055 87.7988 8.41211L87.0957 8.40625C87.0957 7.90234 87.3301 7.4668 87.7988 7.09961C88.2676 6.72852 88.8438 6.54297 89.5273 6.54297C90.2344 6.54297 90.791 6.7207 91.1973 7.07617C91.6074 7.42773 91.8184 7.91992 91.8301 8.55273V11.5527C91.8301 12.166 91.8945 12.625 92.0234 12.9297V13H91.2734ZM89.0703 12.4961C89.5391 12.4961 89.957 12.3828 90.3242 12.1562C90.6953 11.9297 90.9648 11.627 91.1328 11.248V9.85352H89.8789C89.1797 9.86133 88.6328 9.99023 88.2383 10.2402C87.8438 10.4863 87.6465 10.8262 87.6465 11.2598C87.6465 11.6152 87.7773 11.9102 88.0391 12.1445C88.3047 12.3789 88.6484 12.4961 89.0703 12.4961Z" fill="#F9F9F9"/>
<line x1="98.25" y1="8.75" x2="142.75" y2="8.75" stroke="#F9F9F9" stroke-width="0.5" stroke-linecap="round"/>
</svg>
