<svg width="39" height="39" viewBox="0 0 39 39" fill="none" xmlns="http://www.w3.org/2000/svg">
<path d="M30.0642 8.26264C31.5747 4.89025 26.5398 -0.355689 19.4907 0.0190229C12.9453 -0.355689 7.40677 4.89025 8.91727 8.26264C13.4486 10.5109 9.9244 2.64199 19.4907 2.64199C29.0571 2.64199 25.5326 10.1362 30.0642 8.26264Z" fill="#F9F9F9"/>
<path fill-rule="evenodd" clip-rule="evenodd" d="M4.85641 10.4C3.51713 10.4 2.39696 11.4173 2.26842 12.7504L0.0122384 36.1503C-0.135036 37.6777 1.06569 38.9998 2.60022 38.9998H36.3998C37.9343 38.9998 39.135 37.6777 38.9878 36.1503L36.7316 12.7504C36.603 11.4173 35.4829 10.4 34.1436 10.4H4.85641ZM29.5442 14.2706C31.0418 17.6429 26.05 22.8889 19.0613 22.5142C12.572 22.8889 7.08082 17.6429 8.57838 14.2706C10.5276 13.2951 10.9733 14.2242 11.628 15.5888C12.4822 17.3693 13.692 19.8912 19.0613 19.8912C24.4647 19.8912 25.6555 17.4588 26.5107 15.7119C27.1566 14.3926 27.611 13.4644 29.5442 14.2706Z" fill="#F9F9F9"/>
</svg>
