<svg width="25" height="26" viewBox="0 0 25 26" fill="none" xmlns="http://www.w3.org/2000/svg">
<path fill-rule="evenodd" clip-rule="evenodd" d="M12.848 17.36C11.7017 17.882 10.428 18.1728 9.08638 18.1728C4.06811 18.1728 0 14.1046 0 9.08638C0 4.06811 4.06811 0 9.08638 0C14.1046 0 18.1728 4.06811 18.1728 9.08638C18.1728 10.8184 17.6881 12.4372 16.8471 13.8147C16.9471 13.8901 17.043 13.9734 17.1341 14.0645L24.2016 21.132C25.2661 22.1966 25.2661 23.9225 24.2016 24.9871C23.1371 26.0516 21.4111 26.0516 20.3466 24.9871L13.279 17.9195C13.1078 17.7483 12.9641 17.56 12.848 17.36ZM12.7209 9.08638C12.7209 11.0937 11.0937 12.7209 9.08638 12.7209C7.07907 12.7209 5.45183 11.0937 5.45183 9.08638C5.45183 7.07907 7.07907 5.45183 9.08638 5.45183C11.0937 5.45183 12.7209 7.07907 12.7209 9.08638Z" fill="#283B56"/>
</svg>
