<svg width="159" height="71" viewBox="0 0 159 71" fill="none" xmlns="http://www.w3.org/2000/svg">
<path d="M34.5 11.3984C35.625 10.5703 36.8438 10.0469 38.1562 9.82812L41.2734 39.7812C41.3672 41.0469 41.6953 41.9453 42.2578 42.4766C42.8203 42.9922 43.8359 43.3047 45.3047 43.4141L45.1641 44C43.3672 43.9531 41.9688 43.9688 40.9688 44.0469C39.9688 44.125 38.9062 44.3516 37.7812 44.7266L37.6172 44.4688C37.9141 43.9688 38 43.1406 37.875 41.9844L35.1328 14.7266L23.0859 44.9141L21.4453 44.1406C21.3828 43.0312 20.9375 41.4609 20.1094 39.4297L9.39844 15.7344L6.65625 40.7422C6.59375 41.2891 6.63281 41.7344 6.77344 42.0781C6.92969 42.4062 7.28906 42.7188 7.85156 43.0156C8.42969 43.2969 9.28125 43.5469 10.4062 43.7656L10.3125 44.1875C7.75 44 5.75 43.9375 4.3125 44C4.1875 43.875 4.09375 43.7188 4.03125 43.5312L7.57031 12.8516C7.13281 12.4922 6.59375 12.3047 5.95312 12.2891C5.3125 12.2578 4.70312 12.3125 4.125 12.4531L3.84375 11.9844C6.17188 10.6719 8.29688 10.0156 10.2188 10.0156C10.5938 10.8594 12.6953 15.5469 16.5234 24.0781C20.3672 32.6094 22.6484 37.6328 23.3672 39.1484L34.5 11.3984ZM50.8125 32.5859C50.8125 30.9297 51.0859 29.3281 51.6328 27.7812C52.1797 26.2188 52.9609 24.8359 53.9766 23.6328C54.9922 22.4141 56.2188 21.4453 57.6562 20.7266C59.1094 19.9922 60.7344 19.625 62.5312 19.625C63.6562 19.625 64.7188 19.8203 65.7188 20.2109C66.7188 20.5859 67.5859 21.1797 68.3203 21.9922C69.0703 22.7891 69.6562 23.8203 70.0781 25.0859C70.5156 26.3359 70.7344 27.8281 70.7344 29.5625L69.8203 30.4062H54.5156C54.4844 30.6719 54.4688 30.9297 54.4688 31.1797C54.4688 31.4297 54.4688 31.6797 54.4688 31.9297C54.4688 33.6328 54.6641 35.1797 55.0547 36.5703C55.4609 37.9609 56 39.1562 56.6719 40.1562C57.3594 41.1406 58.1641 41.9062 59.0859 42.4531C60.0078 43 60.9844 43.2734 62.0156 43.2734C62.6719 43.2734 63.3359 43.2266 64.0078 43.1328C64.6953 43.0234 65.3594 42.8594 66 42.6406C66.6562 42.4219 67.2891 42.1406 67.8984 41.7969C68.5078 41.4531 69.0703 41.0391 69.5859 40.5547L70.5469 41.5625C69.3125 42.7812 67.9688 43.6484 66.5156 44.1641C65.0625 44.6953 63.3828 44.9609 61.4766 44.9609C59.9766 44.9609 58.5703 44.6719 57.2578 44.0938C55.9609 43.5156 54.8359 42.6875 53.8828 41.6094C52.9297 40.5312 52.1797 39.2344 51.6328 37.7188C51.0859 36.1875 50.8125 34.4766 50.8125 32.5859ZM62.0156 21.2422C59.5938 21.2422 57.8203 21.875 56.6953 23.1406C55.5703 24.3906 54.8906 26.1953 54.6562 28.5547H67.7109C67.5859 25.9922 67.0078 24.1328 65.9766 22.9766C64.9609 21.8203 63.6406 21.2422 62.0156 21.2422ZM78.5859 26.6328C78.5859 25.5859 78.5312 24.7109 78.4219 24.0078C78.3281 23.3047 78.1484 22.7422 77.8828 22.3203C77.6328 21.8984 77.2812 21.6016 76.8281 21.4297C76.375 21.2578 75.5859 21.1797 74.4609 21.1953L74.3672 20.7734C76.9141 20.0078 79.2812 19.625 81.4688 19.625C81.7969 20.4531 81.9609 21.3438 81.9609 22.2969V25.1797L82.0547 25.2734C82.7109 24.3672 83.3359 23.5625 83.9297 22.8594C84.5391 22.1562 85.1562 21.5703 85.7812 21.1016C86.4062 20.6328 87.0625 20.2812 87.75 20.0469C88.4375 19.7969 89.2031 19.6719 90.0469 19.6719C90.5781 19.6719 91.1641 19.7188 91.8047 19.8125L90.4453 25.5312L89.5781 25.2734C89.5781 25.0391 89.5625 24.7188 89.5312 24.3125C89.5 23.9062 89.4531 23.5078 89.3906 23.1172C89.3438 22.7109 89.2734 22.3672 89.1797 22.0859C89.1016 21.7891 89.0078 21.6406 88.8984 21.6406C88.4453 21.6406 87.9844 21.7422 87.5156 21.9453C87.0625 22.1328 86.5625 22.4453 86.0156 22.8828C85.4688 23.3203 84.8672 23.8906 84.2109 24.5938C83.5547 25.2969 82.8047 26.1484 81.9609 27.1484V40.7891C81.9609 41.2891 82 41.6953 82.0781 42.0078C82.1562 42.3047 82.3203 42.5547 82.5703 42.7578C82.8203 42.9609 83.1719 43.1406 83.625 43.2969C84.0781 43.4531 84.6719 43.625 85.4062 43.8125L85.2188 44.375C84.3125 44.25 83.5391 44.1562 82.8984 44.0938C82.2734 44.0312 81.7656 44 81.375 44C80.4844 44 79.4453 44.125 78.2578 44.375L78.1172 44.1406C78.4297 43.6875 78.5859 42.8594 78.5859 41.6562V26.6328ZM112.922 41.3516C112.922 41.6172 112.977 41.8672 113.086 42.1016C113.211 42.3203 113.352 42.5078 113.508 42.6641C113.68 42.8047 113.922 42.9453 114.234 43.0859C114.547 43.2266 114.82 43.3359 115.055 43.4141C115.289 43.4922 115.617 43.5938 116.039 43.7188L115.852 44.2812C114.852 44.0938 113.859 44 112.875 44C111.641 44 110.422 44.125 109.219 44.375L109.078 44.1406C109.406 43.6875 109.57 42.8594 109.57 41.6562V40.1094C108.789 41.5625 107.57 42.7344 105.914 43.625C104.273 44.5156 102.609 44.9609 100.922 44.9609C99.125 44.9609 97.6719 44.5 96.5625 43.5781C95.4688 42.6406 94.9219 41.2578 94.9219 39.4297C94.9219 38.2422 95.1641 37.1875 95.6484 36.2656C96.1484 35.3281 96.8047 34.5391 97.6172 33.8984C98.4453 33.2422 99.5 32.6641 100.781 32.1641C102.078 31.6641 103.406 31.2578 104.766 30.9453C106.141 30.6328 107.742 30.3438 109.57 30.0781V27.9219C109.57 23.625 107.875 21.4766 104.484 21.4766C103.391 21.4766 102.047 21.75 100.453 22.2969C98.875 22.8281 97.5469 23.5312 96.4688 24.4062L95.5078 23.3047C96.8672 22.2266 98.4766 21.3359 100.336 20.6328C102.211 19.9297 103.961 19.5781 105.586 19.5781C106.305 19.5781 106.984 19.6484 107.625 19.7891C108.281 19.9141 108.938 20.1562 109.594 20.5156C110.266 20.8594 110.836 21.3047 111.305 21.8516C111.789 22.3828 112.18 23.1016 112.477 24.0078C112.773 24.8984 112.922 25.9141 112.922 27.0547V41.3516ZM102.023 43.1797C103.383 43.1797 104.805 42.7344 106.289 41.8438C107.773 40.9375 108.867 39.8125 109.57 38.4688V31.3203C105.57 31.8984 102.711 32.7891 100.992 33.9922C99.2891 35.1797 98.4375 36.9141 98.4375 39.1953C98.4375 40.5859 98.7344 41.6016 99.3281 42.2422C99.9219 42.8672 100.82 43.1797 102.023 43.1797ZM123.633 13.5781C123.633 11.3594 123.367 9.875 122.836 9.125C122.32 8.35937 121.211 8.03125 119.508 8.14062L119.414 7.71875C121.992 6.95312 124.359 6.57031 126.516 6.57031C126.844 7.38281 127.008 8.27344 127.008 9.24219V39.7812C127.008 41.0156 127.297 41.9297 127.875 42.5234C128.453 43.1172 129.477 43.5469 130.945 43.8125L130.758 44.375C128.961 44.125 127.516 44 126.422 44C125.562 44 124.523 44.125 123.305 44.375L123.164 44.1406C123.477 43.6875 123.633 42.8594 123.633 41.6562V13.5781ZM137.555 42.8984L128.883 31.4844V30.9453L137.555 22.2031C137.992 21.7188 137.828 21.3516 137.062 21.1016C136.375 20.8672 135.391 20.8047 134.109 20.9141L133.969 20.3281C135.969 19.9219 138.289 19.6875 140.93 19.625L141.305 20.3281L131.555 30.0781C137.617 37.6875 141 41.75 141.703 42.2656C142.406 42.7656 143.281 43.1328 144.328 43.3672L144.281 44.0938C141.719 43.9062 139.781 44 138.469 44.375L138.141 44.1875C138.172 43.8438 137.977 43.4141 137.555 42.8984ZM150.258 26.6328C150.258 24.4141 149.992 22.9297 149.461 22.1797C148.945 21.4141 147.836 21.0859 146.133 21.1953L146.039 20.7734C148.617 20.0078 150.984 19.625 153.141 19.625C153.469 20.4375 153.633 21.3281 153.633 22.2969V39.7812C153.633 41.0156 153.922 41.9297 154.5 42.5234C155.078 43.1172 156.102 43.5469 157.57 43.8125L157.383 44.375C155.586 44.125 154.195 44 153.211 44C152.242 44 151.148 44.125 149.93 44.375L149.789 44.1406C150.102 43.6875 150.258 42.8594 150.258 41.6562V26.6328ZM147.867 10.9297C149.352 10.0703 151.031 9.35156 152.906 8.77344C152.906 10.0703 153.117 11.3516 153.539 12.6172L153.234 13.0391C151.75 13.1328 150.203 13.5469 148.594 14.2812C148.203 13.2031 147.961 12.0859 147.867 10.9297ZM58.2613 50.612H58.9613V61H58.2613V50.612ZM61.9117 53.692H62.6117V61H61.9117V53.692ZM62.2617 51.914C62.1031 51.914 61.9677 51.8627 61.8557 51.76C61.7437 51.648 61.6877 51.5127 61.6877 51.354C61.6877 51.1953 61.7437 51.06 61.8557 50.948C61.9677 50.836 62.1031 50.78 62.2617 50.78C62.4204 50.78 62.5557 50.836 62.6677 50.948C62.7797 51.0507 62.8357 51.1813 62.8357 51.34C62.8357 51.4987 62.7797 51.634 62.6677 51.746C62.5557 51.858 62.4204 51.914 62.2617 51.914ZM71.4281 53.692L68.1241 61H67.4101L64.1201 53.692H64.8621L67.7741 60.23L70.7141 53.692H71.4281ZM73.6306 55.288C73.8546 54.756 74.2046 54.35 74.6806 54.07C75.1566 53.7807 75.7353 53.636 76.4166 53.636V54.322L76.2486 54.308C75.4366 54.308 74.8019 54.5647 74.3446 55.078C73.8873 55.582 73.6586 56.2867 73.6586 57.192V61H72.9586V53.692H73.6306V55.288ZM80.8093 53.636C81.7147 53.636 82.41 53.8693 82.8953 54.336C83.3807 54.7933 83.6233 55.47 83.6233 56.366V61H82.9513V59.698C82.718 60.1273 82.3773 60.4633 81.9293 60.706C81.4813 60.9393 80.9447 61.056 80.3193 61.056C79.5073 61.056 78.8633 60.8647 78.3873 60.482C77.9207 60.0993 77.6873 59.5953 77.6873 58.97C77.6873 58.3633 77.902 57.8733 78.3313 57.5C78.77 57.1173 79.4653 56.926 80.4173 56.926H82.9233V56.338C82.9233 55.6567 82.7367 55.1387 82.3633 54.784C81.9993 54.4293 81.4627 54.252 80.7533 54.252C80.268 54.252 79.8013 54.336 79.3533 54.504C78.9147 54.672 78.5413 54.896 78.2333 55.176L77.8833 54.672C78.2473 54.3453 78.686 54.0933 79.1993 53.916C79.7127 53.7293 80.2493 53.636 80.8093 53.636ZM80.4173 60.482C81.024 60.482 81.5373 60.342 81.9573 60.062C82.3867 59.782 82.7087 59.376 82.9233 58.844V57.472H80.4313C79.7127 57.472 79.19 57.6027 78.8633 57.864C78.546 58.1253 78.3873 58.4847 78.3873 58.942C78.3873 59.418 78.5647 59.796 78.9193 60.076C79.274 60.3467 79.7733 60.482 80.4173 60.482ZM87.1794 55.288C87.4034 54.756 87.7534 54.35 88.2294 54.07C88.7054 53.7807 89.2841 53.636 89.9654 53.636V54.322L89.7974 54.308C88.9854 54.308 88.3508 54.5647 87.8934 55.078C87.4361 55.582 87.2074 56.2867 87.2074 57.192V61H86.5074V53.692H87.1794V55.288ZM91.8942 53.692H92.5942V61H91.8942V53.692ZM92.2442 51.914C92.0855 51.914 91.9502 51.8627 91.8382 51.76C91.7262 51.648 91.6702 51.5127 91.6702 51.354C91.6702 51.1953 91.7262 51.06 91.8382 50.948C91.9502 50.836 92.0855 50.78 92.2442 50.78C92.4028 50.78 92.5382 50.836 92.6502 50.948C92.7622 51.0507 92.8182 51.1813 92.8182 51.34C92.8182 51.4987 92.7622 51.634 92.6502 51.746C92.5382 51.858 92.4028 51.914 92.2442 51.914ZM98.0085 53.636C98.9139 53.636 99.6092 53.8693 100.095 54.336C100.58 54.7933 100.823 55.47 100.823 56.366V61H100.151V59.698C99.9172 60.1273 99.5765 60.4633 99.1285 60.706C98.6805 60.9393 98.1439 61.056 97.5185 61.056C96.7065 61.056 96.0625 60.8647 95.5865 60.482C95.1199 60.0993 94.8865 59.5953 94.8865 58.97C94.8865 58.3633 95.1012 57.8733 95.5305 57.5C95.9692 57.1173 96.6645 56.926 97.6165 56.926H100.123V56.338C100.123 55.6567 99.9359 55.1387 99.5625 54.784C99.1985 54.4293 98.6619 54.252 97.9525 54.252C97.4672 54.252 97.0005 54.336 96.5525 54.504C96.1139 54.672 95.7405 54.896 95.4325 55.176L95.0825 54.672C95.4465 54.3453 95.8852 54.0933 96.3985 53.916C96.9119 53.7293 97.4485 53.636 98.0085 53.636ZM97.6165 60.482C98.2232 60.482 98.7365 60.342 99.1565 60.062C99.5859 59.782 99.9079 59.376 100.123 58.844V57.472H97.6305C96.9119 57.472 96.3892 57.6027 96.0625 57.864C95.7452 58.1253 95.5865 58.4847 95.5865 58.942C95.5865 59.418 95.7639 59.796 96.1185 60.076C96.4732 60.3467 96.9725 60.482 97.6165 60.482Z" fill="#F9F9F9"/>
<line x1="109" y1="57.75" x2="159" y2="57.75" stroke="#F9F9F9" stroke-width="0.5"/>
<line y1="57.75" x2="50" y2="57.75" stroke="#F9F9F9" stroke-width="0.5"/>
</svg>
