<svg width="39" height="39" viewBox="0 0 39 39" fill="none" xmlns="http://www.w3.org/2000/svg">
<g clip-path="url(#clip0)">
<path d="M19.2222 18.7864C21.8031 18.7864 24.0379 17.8607 25.864 16.0344C27.69 14.2084 28.6157 11.9741 28.6157 9.39291C28.6157 6.81259 27.69 4.57803 25.8637 2.7514C24.0373 0.925663 21.8028 0 19.2222 0C16.6409 0 14.4067 0.925663 12.5806 2.7517C10.7546 4.57773 9.82861 6.8123 9.82861 9.39291C9.82861 11.9741 10.7546 14.2087 12.5809 16.0347C14.4073 17.8604 16.6418 18.7864 19.2222 18.7864Z" fill="#F9F9F9"/>
<path d="M35.6583 29.989C35.6056 29.2291 35.4991 28.4001 35.3423 27.5247C35.184 26.6428 34.9801 25.8091 34.7362 25.0471C34.4841 24.2595 34.1414 23.4817 33.7177 22.7363C33.2779 21.9627 32.7613 21.2891 32.1817 20.7348C31.5756 20.1548 30.8335 19.6886 29.9754 19.3485C29.1203 19.0102 28.1726 18.8388 27.1588 18.8388C26.7607 18.8388 26.3757 19.0022 25.6321 19.4863C25.1745 19.7847 24.6392 20.1298 24.0417 20.5116C23.5309 20.8371 22.8388 21.1421 21.9839 21.4182C21.1499 21.6881 20.3031 21.825 19.4673 21.825C18.6315 21.825 17.7849 21.6881 16.95 21.4182C16.0961 21.1424 15.404 20.8374 14.8937 20.5119C14.3019 20.1337 13.7663 19.7886 13.3018 19.486C12.5591 19.0019 12.1738 18.8385 11.7757 18.8385C10.7617 18.8385 9.81427 19.0102 8.95942 19.3488C8.10189 19.6883 7.35951 20.1545 6.75282 20.7351C6.17349 21.2897 5.65665 21.963 5.21748 22.7363C4.79407 23.4817 4.45129 24.2592 4.19897 25.0474C3.95528 25.8094 3.75146 26.6428 3.59317 27.5247C3.43636 28.3989 3.32984 29.2282 3.27718 29.9899C3.2254 30.7361 3.19922 31.5107 3.19922 32.2929C3.19922 34.3287 3.84638 35.9768 5.12256 37.1923C6.38297 38.3917 8.05071 39.0002 10.0788 39.0002H28.8575C30.8856 39.0002 32.5528 38.392 33.8135 37.1923C35.0899 35.9777 35.7371 34.3293 35.7371 32.2926C35.7368 31.5068 35.7103 30.7317 35.6583 29.989Z" fill="#F9F9F9"/>
</g>
<defs>
<clipPath id="clip0">
<rect width="39" height="39" fill="white"/>
</clipPath>
</defs>
</svg>
