<svg width="1441" height="900" viewBox="0 0 1441 900" fill="none" xmlns="http://www.w3.org/2000/svg">
<path d="M911.257 592.152C634.843 614.691 421.867 812.593 349 900H751.184C658.142 795.713 792.703 620.229 1008.3 620.229C1347.46 620.229 1391.98 529.981 1441 451.264V174C1408.49 295.334 1343.46 556.91 911.257 592.152Z" fill="#ACBFD9"/>
<path d="M911.257 592.152C634.843 614.691 421.867 812.593 349 900H751.184C658.142 795.713 792.703 620.229 1008.3 620.229C1347.46 620.229 1391.98 529.981 1441 451.264V174C1408.49 295.334 1343.46 556.91 911.257 592.152Z" fill="url(#paint0_linear)"/>
<path d="M203.677 365.218C129.161 379.216 30.9381 360.086 0 338.757V161.85C8 239.146 63 283.604 96 298.933C143.5 320.997 226.848 314.231 240.5 311.905C292.5 303.049 357.38 275.244 387.279 188.198C396.869 160.277 414.5 117.881 430 79.5274C445.5 41.1738 483.725 0 501 0H616C540.312 10.3509 471.981 -13.973 393.004 188.198C346 308.521 278.194 351.221 203.677 365.218Z" fill="#2C4B5C"/>
<path d="M203.677 365.218C129.161 379.216 30.9381 360.086 0 338.757V161.85C8 239.146 63 283.604 96 298.933C143.5 320.997 226.848 314.231 240.5 311.905C292.5 303.049 357.38 275.244 387.279 188.198C396.869 160.277 414.5 117.881 430 79.5274C445.5 41.1738 483.725 0 501 0H616C540.312 10.3509 471.981 -13.973 393.004 188.198C346 308.521 278.194 351.221 203.677 365.218Z" fill="url(#paint1_linear)"/>
<defs>
<linearGradient id="paint0_linear" x1="1060.33" y1="233.163" x2="733.384" y2="1046.38" gradientUnits="userSpaceOnUse">
<stop stop-color="#DABBCB"/>
<stop offset="1" stop-color="white" stop-opacity="0"/>
</linearGradient>
<linearGradient id="paint1_linear" x1="-89.4193" y1="324.43" x2="686.003" y2="-133.846" gradientUnits="userSpaceOnUse">
<stop stop-color="#DABBCB"/>
<stop offset="1" stop-color="white" stop-opacity="0"/>
</linearGradient>
</defs>
</svg>
