<svg width="1273" height="496" viewBox="0 0 1273 496" fill="none" xmlns="http://www.w3.org/2000/svg">
<path d="M800.243 206.855C623.888 254.367 415.724 88.7482 333.686 0H6.93308e-06V235.944C2.40558e-05 282.902 90.7037 361.216 183.13 393.076C216.426 404.553 333.686 436.87 464.426 393.076C534.821 369.495 676.432 300.972 816.852 278.827C957.272 256.682 979.433 308.259 992.503 336.203C997.969 347.889 997.167 359.458 1007.1 393.076C1011.39 407.588 1024.72 456.963 1075.04 485.179C1093.14 495.327 1162.5 506.907 1204.98 474.759C1267.56 427.406 1270.32 321.607 1224.02 262.721C1177.72 203.836 1020.69 147.466 800.243 206.855Z" fill="#9DBDBA"/>
<path d="M800.243 206.855C623.888 254.367 415.724 88.7482 333.686 0H6.93308e-06V235.944C2.40558e-05 282.902 90.7037 361.216 183.13 393.076C216.426 404.553 333.686 436.87 464.426 393.076C534.821 369.495 676.432 300.972 816.852 278.827C957.272 256.682 979.433 308.259 992.503 336.203C997.969 347.889 997.167 359.458 1007.1 393.076C1011.39 407.588 1024.72 456.963 1075.04 485.179C1093.14 495.327 1162.5 506.907 1204.98 474.759C1267.56 427.406 1270.32 321.607 1224.02 262.721C1177.72 203.836 1020.69 147.466 800.243 206.855Z" fill="url(#paint0_linear)"/>
<path d="M1138.85 99.3135C1190.84 111.511 1150.04 216.328 1099.51 155.255C1081.11 133.014 1060 165.443 1029.81 144.655C1010.41 131.301 1038.07 94.9115 1066.32 78.4216C1130.89 40.7385 1125.22 99.3135 1138.85 99.3135Z" fill="#9DBDBA"/>
<path d="M1138.85 99.3135C1190.84 111.511 1150.04 216.328 1099.51 155.255C1081.11 133.014 1060 165.443 1029.81 144.655C1010.41 131.301 1038.07 94.9115 1066.32 78.4216C1130.89 40.7385 1125.22 99.3135 1138.85 99.3135Z" fill="url(#paint1_linear)"/>
<defs>
<linearGradient id="paint0_linear" x1="575.773" y1="-3.73479e-05" x2="772.059" y2="499.271" gradientUnits="userSpaceOnUse">
<stop stop-color="#DABBCB"/>
<stop offset="1" stop-color="white" stop-opacity="0"/>
</linearGradient>
<linearGradient id="paint1_linear" x1="1037.14" y1="73.9848" x2="1145.35" y2="167.095" gradientUnits="userSpaceOnUse">
<stop stop-color="#DABBCB"/>
<stop offset="1" stop-color="white" stop-opacity="0"/>
</linearGradient>
</defs>
</svg>
