<svg width="1652" height="607" viewBox="0 0 1652 607" fill="none" xmlns="http://www.w3.org/2000/svg">
<path d="M1305 237.422C1485.31 233.823 1616.94 114.579 1652 60.0843V364C1629.5 436.5 1532 480.127 1520 485C1433 520.332 1305 529.327 1207 502C1044.5 456.687 914 311.389 859 253.5C622.9 5 342.5 78.6345 211 178.073C334.214 72.0832 396.871 45.9986 471.5 30.5C565.5 10.9788 684 26.1207 758.5 64.4999C775 73 856 110.082 914 145.5C981.918 186.974 1124.69 241.022 1305 237.422Z" fill="#6C63FF"/>
<path d="M1305 237.422C1485.31 233.823 1616.94 114.579 1652 60.0843V364C1629.5 436.5 1532 480.127 1520 485C1433 520.332 1305 529.327 1207 502C1044.5 456.687 914 311.389 859 253.5C622.9 5 342.5 78.6345 211 178.073C334.214 72.0832 396.871 45.9986 471.5 30.5C565.5 10.9788 684 26.1207 758.5 64.4999C775 73 856 110.082 914 145.5C981.918 186.974 1124.69 241.022 1305 237.422Z" fill="url(#paint0_linear)"/>
<path d="M224 399.5C160.8 480.3 55.8333 479.833 0.5 476.5V579.5C120.9 581.1 202.158 519.5 245.5 433C326.671 271 415.5 223.387 473 211.5C398 219.5 323.337 272.5 224 399.5Z" fill="#6C63FF"/>
<path d="M224 399.5C160.8 480.3 55.8333 479.833 0.5 476.5V579.5C120.9 581.1 202.158 519.5 245.5 433C326.671 271 415.5 223.387 473 211.5C398 219.5 323.337 272.5 224 399.5Z" fill="url(#paint1_linear)"/>
<defs>
<linearGradient id="paint0_linear" x1="1418.59" y1="486.044" x2="61.6647" y2="-514.834" gradientUnits="userSpaceOnUse">
<stop stop-color="#A0616A"/>
<stop offset="1" stop-color="white" stop-opacity="0"/>
</linearGradient>
<linearGradient id="paint1_linear" x1="502" y1="247" x2="-629.5" y2="456.5" gradientUnits="userSpaceOnUse">
<stop stop-color="#A0616A"/>
<stop offset="1" stop-color="white" stop-opacity="0"/>
</linearGradient>
</defs>
</svg>
